# Blender v2.80 (sub 74) OBJ File: ''
# www.blender.org
mtllib OpenSphereEmitter.01.mtl
o Sphere
v -0.221858 0.980785 -0.195090
v -0.221858 0.923880 -0.382683
v -0.221858 0.831470 -0.555570
v -0.221858 0.707107 -0.707107
v -0.221858 0.555570 -0.831470
v -0.221858 0.382683 -0.923880
v -0.221858 0.195090 -0.980785
v -0.221858 0.000000 -1.000000
v -0.221858 -0.195090 -0.980785
v -0.221858 -0.831470 -0.555570
v -0.221858 -1.000000 0.000000
v -0.221858 0.980785 0.195091
v -0.221858 0.923880 0.382684
v -0.221858 0.831470 0.555571
v -0.221858 0.707107 0.707107
v -0.221858 0.555570 0.831470
v -0.221858 0.382683 0.923880
v -0.221858 0.195090 0.980785
v -0.221858 0.000000 1.000000
v -0.221858 -0.195090 0.980785
v -0.221858 -0.382683 0.923880
v -0.221858 -0.555570 0.831470
v -0.221858 -0.707107 0.707107
v -0.221858 -0.831470 0.555570
v -0.221858 -0.923880 0.382684
v -0.221858 -0.980785 0.195091
v -0.221857 1.000000 0.000001
v -0.221858 -0.382683 -0.923879
v -0.221858 -0.555570 -0.831469
v -0.221858 -0.707107 -0.707106
v -0.221858 -0.923880 -0.382683
v -0.221858 -0.980785 -0.195090
v -0.527867 -0.842977 -0.167678
v -0.527867 -0.794067 -0.328913
v -0.527867 -0.607753 -0.607752
v -0.527868 -0.477508 -0.714641
v -0.527867 -0.328913 -0.794067
v -0.527867 0.859492 0.000001
v -0.527867 -0.842977 0.167679
v -0.527867 -0.794067 0.328914
v -0.527867 -0.714642 0.477509
v -0.527867 -0.607753 0.607753
v -0.527867 -0.477508 0.714642
v -0.527867 -0.328913 0.794068
v -0.527867 -0.167679 0.842977
v -0.527867 0.000000 0.859493
v -0.527867 0.167679 0.842977
v -0.527867 0.328913 0.794068
v -0.527867 0.477508 0.714642
v -0.527867 0.607753 0.607753
v -0.527867 0.714642 0.477509
v -0.527867 0.794067 0.328914
v -0.527867 0.842977 0.167679
v -0.527867 -0.859492 0.000000
v -0.527867 -0.714642 -0.477508
v -0.527867 -0.167679 -0.842977
v -0.527867 0.000000 -0.859492
v -0.527867 0.167679 -0.842977
v -0.527867 0.328913 -0.794067
v -0.527867 0.477508 -0.714642
v -0.527867 0.607753 -0.607753
v -0.527867 0.714642 -0.477508
v -0.527867 0.794067 -0.328913
v -0.527867 0.842977 -0.167679
v -0.673407 0.695173 -0.138278
v -0.673407 0.654839 -0.271243
v -0.673407 0.589339 -0.393784
v -0.673407 0.501192 -0.501192
v -0.673407 0.393784 -0.589339
v -0.673407 0.271243 -0.654839
v -0.673407 0.138279 -0.695173
v -0.673407 0.000000 -0.708792
v -0.673407 -0.138278 -0.695173
v -0.673407 -0.589339 -0.393784
v -0.673407 -0.708793 0.000000
v -0.673407 0.695173 0.138279
v -0.673407 0.654839 0.271244
v -0.673407 0.589339 0.393784
v -0.673407 0.501192 0.501192
v -0.673407 0.393784 0.589340
v -0.673407 0.271243 0.654839
v -0.673407 0.138279 0.695173
v -0.673407 0.000000 0.708793
v -0.673407 -0.138278 0.695173
v -0.673407 -0.271243 0.654839
v -0.673407 -0.393784 0.589340
v -0.673407 -0.501192 0.501192
v -0.673407 -0.589339 0.393784
v -0.673407 -0.654839 0.271243
v -0.673407 -0.695173 0.138279
v -0.673407 0.708793 0.000000
v -0.673407 -0.271243 -0.654838
v -0.673408 -0.393784 -0.589339
v -0.673407 -0.501192 -0.501192
v -0.673407 -0.654839 -0.271243
v -0.673407 -0.695173 -0.138278
v 0.672557 -0.695173 -0.138278
v 0.672557 -0.654839 -0.271243
v 0.672557 -0.501192 -0.501192
v 0.672557 -0.393784 -0.589339
v 0.672557 -0.271243 -0.654838
v 0.672557 0.708793 0.000000
v 0.672557 -0.695173 0.138279
v 0.672557 -0.654839 0.271243
v 0.672557 -0.589339 0.393784
v 0.672557 -0.501192 0.501192
v 0.672557 -0.393784 0.589340
v 0.672557 -0.271243 0.654839
v 0.672557 -0.138278 0.695173
v 0.672557 0.000000 0.708793
v 0.672557 0.138279 0.695173
v 0.672557 0.271243 0.654839
v 0.672557 0.393784 0.589340
v 0.672557 0.501192 0.501192
v 0.672557 0.589339 0.393784
v 0.672557 0.654839 0.271244
v 0.672557 0.695173 0.138279
v 0.672557 -0.708793 0.000000
v 0.672557 -0.589339 -0.393784
v 0.672557 -0.138278 -0.695173
v 0.672557 0.000000 -0.708792
v 0.672557 0.138279 -0.695173
v 0.672557 0.271243 -0.654839
v 0.672557 0.393784 -0.589339
v 0.672557 0.501192 -0.501192
v 0.672557 0.589339 -0.393784
v 0.672557 0.654839 -0.271243
v 0.672557 0.695173 -0.138278
v 0.527017 0.842977 -0.167679
v 0.527017 0.794067 -0.328913
v 0.527017 0.714642 -0.477508
v 0.527017 0.607753 -0.607753
v 0.527017 0.477508 -0.714642
v 0.527017 0.328913 -0.794067
v 0.527017 0.167679 -0.842977
v 0.527017 0.000000 -0.859492
v 0.527017 -0.167679 -0.842977
v 0.527017 -0.714642 -0.477508
v 0.527017 -0.859492 0.000000
v 0.527017 0.842977 0.167679
v 0.527017 0.794067 0.328914
v 0.527017 0.714642 0.477509
v 0.527017 0.607753 0.607753
v 0.527017 0.477508 0.714642
v 0.527017 0.328913 0.794068
v 0.527017 0.167679 0.842977
v 0.527017 0.000000 0.859493
v 0.527017 -0.167679 0.842977
v 0.527017 -0.328913 0.794068
v 0.527017 -0.477508 0.714642
v 0.527017 -0.607753 0.607753
v 0.527017 -0.714642 0.477509
v 0.527017 -0.794067 0.328914
v 0.527017 -0.842977 0.167679
v 0.527016 0.859492 0.000001
v 0.527017 -0.328913 -0.794067
v 0.527017 -0.477508 -0.714641
v 0.527017 -0.607753 -0.607752
v 0.527017 -0.794067 -0.328913
v 0.527017 -0.842977 -0.167678
v 0.221007 -0.980785 -0.195090
v 0.221007 -0.923880 -0.382683
v 0.221007 -0.707107 -0.707106
v 0.221007 -0.555570 -0.831469
v 0.221007 -0.382683 -0.923879
v 0.221007 1.000000 0.000001
v 0.221007 -0.980785 0.195091
v 0.221007 -0.923880 0.382684
v 0.221007 -0.831470 0.555570
v 0.221007 -0.707107 0.707107
v 0.221007 -0.555570 0.831470
v 0.221007 -0.382683 0.923880
v 0.221007 -0.195090 0.980785
v 0.221007 0.000000 1.000000
v 0.221007 0.195090 0.980785
v 0.221007 0.382683 0.923880
v 0.221007 0.555570 0.831470
v 0.221007 0.707107 0.707107
v 0.221007 0.831470 0.555571
v 0.221007 0.923880 0.382684
v 0.221007 0.980785 0.195091
v 0.221007 -1.000000 0.000000
v 0.221007 -0.831470 -0.555570
v 0.221007 -0.195090 -0.980785
v 0.221007 0.000000 -1.000000
v 0.221007 0.195090 -0.980785
v 0.221007 0.382683 -0.923880
v 0.221007 0.555570 -0.831470
v 0.221007 0.707107 -0.707107
v 0.221007 0.831470 -0.555570
v 0.221007 0.923880 -0.382683
v 0.221007 0.980785 -0.195090
vt 0.000000 0.000000
vt 0.000000 0.000000
vt 0.000000 0.000000
vt 0.000000 0.000000
vt 0.000000 0.000000
vt 0.000000 0.000000
vt 0.000000 0.000000
vt 0.000000 0.000000
vt 0.000000 0.000000
vt 0.000000 0.000000
vt 0.000000 0.000000
vt 0.000000 0.000000
vt 0.000000 0.000000
vt 0.000000 0.000000
vt 0.000000 0.000000
vt 0.000000 0.000000
vt 0.000000 0.000000
vt 0.000000 0.000000
vt 0.000000 0.000000
vt 0.000000 0.000000
vt 0.000000 0.000000
vt 0.000000 0.000000
vt 0.000000 0.000000
vt 0.000000 0.000000
vt 0.000000 0.000000
vt 0.000000 0.000000
vt 0.000000 0.000000
vt 0.000000 0.000000
vt 0.000000 0.000000
vt 0.000000 0.000000
vt 0.000000 0.000000
vt 0.000000 0.000000
vt 0.000000 0.000000
vt 0.000000 0.000000
vt 0.000000 0.000000
vt 0.000000 0.000000
vt 0.000000 0.000000
vt 0.000000 0.000000
vt 0.000000 0.000000
vt 0.000000 0.000000
vt 0.000000 0.000000
vt 0.000000 0.000000
vt 0.000000 0.000000
vt 0.000000 0.000000
vt 0.000000 0.000000
vt 0.000000 0.000000
vt 0.000000 0.000000
vt 0.000000 0.000000
vt 0.000000 0.000000
vt 0.000000 0.000000
vt 0.000000 0.000000
vt 0.000000 0.000000
vt 0.000000 0.000000
vt 0.000000 0.000000
vt 0.000000 0.000000
vt 0.000000 0.000000
vt 0.000000 0.000000
vt 0.000000 0.000000
vt 0.000000 0.000000
vt 0.000000 0.000000
vt 0.000000 0.000000
vt 0.000000 0.000000
vt 0.000000 0.000000
vt 0.000000 0.000000
vt 0.000000 0.000000
vt 0.000000 0.000000
vt 0.000000 0.000000
vt 0.000000 0.000000
vt 0.000000 0.000000
vt 0.000000 0.000000
vt 0.000000 0.000000
vt 0.000000 0.000000
vt 0.000000 0.000000
vt 0.000000 0.000000
vt 0.000000 0.000000
vt 0.000000 0.000000
vt 0.000000 0.000000
vt 0.000000 0.000000
vt 0.000000 0.000000
vt 0.000000 0.000000
vt 0.000000 0.000000
vt 0.000000 0.000000
vt 0.000000 0.000000
vt 0.000000 0.000000
vt 0.000000 0.000000
vt 0.000000 0.000000
vt 0.000000 0.000000
vt 0.000000 0.000000
vt 0.000000 0.000000
vt 0.000000 0.000000
vt 0.000000 0.000000
vt 0.000000 0.000000
vt 0.000000 0.000000
vt 0.000000 0.000000
vt 0.000000 0.000000
vt 0.000000 0.000000
vt 0.000000 0.000000
vt 0.000000 0.000000
vt 0.000000 0.000000
vt 0.000000 0.000000
vt 0.000000 0.000000
vt 0.000000 0.000000
vt 0.000000 0.000000
vt 0.000000 0.000000
vt 0.000000 0.000000
vt 0.000000 0.000000
vt 0.000000 0.000000
vt 0.000000 0.000000
vt 0.000000 0.000000
vt 0.000000 0.000000
vt 0.000000 0.000000
vt 0.000000 0.000000
vt 0.000000 0.000000
vt 0.000000 0.000000
vt 0.000000 0.000000
vt 0.000000 0.000000
vt 0.000000 0.000000
vt 0.000000 0.000000
vt 0.000000 0.000000
vt 0.000000 0.000000
vt 0.000000 0.000000
vt 0.000000 0.000000
vt 0.000000 0.000000
vt 0.000000 0.000000
vt 0.000000 0.000000
vt 0.000000 0.000000
vt 0.000000 0.000000
vt 0.000000 0.000000
vt 0.000000 0.000000
vt 0.000000 0.000000
vt 0.000000 0.000000
vt 0.000000 0.000000
vt 0.000000 0.000000
vt 0.000000 0.000000
vt 0.000000 0.000000
vt 0.000000 0.000000
vt 0.000000 0.000000
vt 0.000000 0.000000
vt 0.000000 0.000000
vt 0.000000 0.000000
vt 0.000000 0.000000
vt 0.000000 0.000000
vt 0.000000 0.000000
vt 0.000000 0.000000
vt 0.000000 0.000000
vt 0.000000 0.000000
vt 0.000000 0.000000
vt 0.000000 0.000000
vt 0.000000 0.000000
vt 0.000000 0.000000
vt 0.000000 0.000000
vt 0.000000 0.000000
vt 0.000000 0.000000
vt 0.000000 0.000000
vt 0.000000 0.000000
vt 0.000000 0.000000
vt 0.000000 0.000000
vt 0.000000 0.000000
vt 0.000000 0.000000
vt 0.000000 0.000000
vt 0.000000 0.000000
vt 0.000000 0.000000
vt 0.000000 0.000000
vt 0.000000 0.000000
vt 0.000000 0.000000
vt 0.000000 0.000000
vt 0.000000 0.000000
vt 0.000000 0.000000
vt 0.000000 0.000000
vt 0.000000 0.000000
vt 0.000000 0.000000
vt 0.000000 0.000000
vt 0.000000 0.000000
vt 0.000000 0.000000
vt 0.000000 0.000000
vt 0.000000 0.000000
vt 0.000000 0.000000
vt 0.000000 0.000000
vt 0.000000 0.000000
vt 0.000000 0.000000
vt 0.000000 0.000000
vt 0.000000 0.000000
vt 0.000000 0.000000
vt 0.000000 0.000000
vt 0.000000 0.000000
vt 0.000000 0.000000
vt 0.000000 0.000000
vt 0.000000 0.000000
vt 0.000000 0.000000
vt 0.000000 0.000000
vt 0.000000 0.000000
vt 0.000000 0.000000
vn 0.0000 0.9952 -0.0980
vn 0.0000 0.8819 0.4714
vn 0.0000 -0.2903 0.9569
vn 0.0000 -0.0980 -0.9952
vn 0.0000 0.0980 0.9952
vn 0.0000 0.9569 0.2903
vn 0.0000 0.4714 0.8819
vn 0.0000 0.0980 -0.9952
vn 0.0000 -0.7730 -0.6344
vn 0.0000 0.6344 0.7730
vn 0.0000 0.8819 -0.4714
vn 0.0000 -0.8819 -0.4714
vn 0.0000 0.7730 0.6344
vn 0.0000 -0.9569 -0.2903
vn 0.0000 -0.6344 -0.7730
vn 0.0000 -0.7730 0.6344
vn 0.0000 0.2903 -0.9569
vn 0.0000 -0.8819 0.4714
vn 0.0000 -0.9952 0.0980
vn 0.0000 -0.2903 -0.9569
vn 0.0000 -0.4714 0.8819
vn 0.0000 -0.4714 -0.8819
vn 0.0000 0.4714 -0.8819
vn 0.0000 0.9569 -0.2903
vn 0.0000 -0.9952 -0.0980
vn 0.0000 0.6344 -0.7730
vn 0.0000 0.2903 0.9569
vn 0.0000 -0.9569 0.2903
vn 0.0000 0.7730 -0.6344
vn 0.0000 -0.0980 0.9952
vn 0.0000 -0.6344 0.7730
vn -0.4156 -0.5770 0.7031
vn -0.4156 0.5770 0.7031
vn -0.4156 -0.0892 -0.9052
vn -0.4156 0.4288 -0.8021
vn -0.4156 0.2640 0.8704
vn -0.4156 0.8021 -0.4288
vn -0.4156 0.2640 -0.8704
vn -0.4156 -0.0892 0.9052
vn -0.4156 0.7031 -0.5770
vn -0.4156 0.8021 0.4288
vn -0.4156 -0.4288 0.8021
vn -0.4156 0.0892 -0.9052
vn -0.4156 0.8704 0.2640
vn -0.4156 -0.9052 -0.0892
vn -0.4156 -0.9052 0.0892
vn -0.4156 -0.2640 0.8704
vn -0.4156 0.9052 0.0891
vn -0.4156 0.8704 -0.2640
vn -0.4156 -0.8704 0.2640
vn -0.4156 0.7031 0.5770
vn -0.4156 -0.7031 -0.5770
vn -0.4156 0.0892 0.9052
vn -0.4156 -0.8021 -0.4288
vn -0.4156 -0.4288 -0.8021
vn -0.4156 0.5770 -0.7031
vn -0.4156 -0.7031 0.5770
vn -0.4156 -0.5770 -0.7031
vn -0.4156 -0.2640 -0.8704
vn -0.4156 0.4288 0.8021
vn -0.4156 -0.8021 0.4288
vn -0.4156 -0.8704 -0.2640
vn -0.4156 0.9052 -0.0891
vn -0.7176 0.6142 -0.3283
vn -0.7176 -0.6142 -0.3283
vn -0.7176 0.6664 -0.2022
vn -0.7176 -0.6664 -0.2022
vn -0.7176 -0.5383 -0.4418
vn -0.7176 0.0683 -0.6931
vn -0.7176 0.3283 -0.6142
vn -0.7176 -0.6664 0.2022
vn -0.7176 -0.3283 -0.6142
vn -0.7176 0.0683 0.6931
vn -0.7176 0.6931 -0.0683
vn -0.7176 -0.6142 0.3283
vn -0.7176 -0.4418 -0.5383
vn -0.7176 -0.6931 -0.0683
vn -0.7176 0.6931 0.0683
vn -0.7176 -0.5383 0.4418
vn -0.7176 0.2022 -0.6664
vn -0.7176 0.4418 -0.5383
vn -0.7176 0.4418 0.5383
vn -0.7176 0.3283 0.6142
vn -0.7176 -0.6931 0.0683
vn -0.7176 0.6664 0.2022
vn -0.7176 0.2022 0.6664
vn -0.7176 -0.2022 0.6664
vn -0.7176 0.6142 0.3283
vn -0.7176 -0.0683 0.6931
vn -0.7176 -0.0683 -0.6931
vn -0.7176 -0.2022 -0.6664
vn -0.7176 0.5383 -0.4418
vn -0.7176 0.5383 0.4418
vn -0.7176 -0.4418 0.5383
vn -0.7176 -0.3283 0.6142
vn 0.7176 0.3283 0.6142
vn 0.7176 0.2022 -0.6664
vn 0.7176 -0.4418 0.5383
vn 0.7176 0.5383 -0.4418
vn 0.7176 -0.0683 -0.6931
vn 0.7176 0.6142 0.3283
vn 0.7176 0.2022 0.6664
vn 0.7176 -0.6931 0.0683
vn 0.7176 0.4418 -0.5383
vn 0.7176 -0.3283 0.6142
vn 0.7176 0.5383 0.4418
vn 0.7176 -0.2022 -0.6664
vn 0.7176 -0.0683 0.6931
vn 0.7176 -0.2022 0.6664
vn 0.7176 0.4418 0.5383
vn 0.7176 0.6664 0.2022
vn 0.7176 -0.6142 0.3283
vn 0.7176 -0.3283 -0.6142
vn 0.7176 0.3283 -0.6142
vn 0.7176 -0.5383 -0.4418
vn 0.7176 0.6664 -0.2022
vn 0.7176 0.6142 -0.3283
vn 0.7176 0.6931 0.0683
vn 0.7176 -0.4418 -0.5383
vn 0.7176 0.0683 0.6931
vn 0.7176 -0.6664 0.2022
vn 0.7176 0.0683 -0.6931
vn 0.7176 -0.6664 -0.2022
vn 0.7176 -0.6142 -0.3283
vn 0.7176 -0.5383 0.4418
vn 0.7176 0.6931 -0.0683
vn 0.7176 -0.6931 -0.0683
vn 0.4156 0.0892 0.9052
vn 0.4156 -0.8704 0.2640
vn 0.4156 0.9052 0.0891
vn 0.4156 -0.8704 -0.2640
vn 0.4156 0.4288 0.8021
vn 0.4156 -0.5770 -0.7031
vn 0.4156 0.5770 -0.7031
vn 0.4156 -0.8021 -0.4288
vn 0.4156 0.7031 0.5770
vn 0.4156 0.8704 -0.2640
vn 0.4156 0.9052 -0.0891
vn 0.4156 -0.8021 0.4288
vn 0.4156 -0.2640 -0.8704
vn 0.4156 -0.7031 0.5770
vn 0.4156 -0.7031 -0.5770
vn 0.4156 -0.4288 -0.8021
vn 0.4156 -0.9052 -0.0892
vn 0.4156 -0.4288 0.8021
vn 0.4156 0.7031 -0.5770
vn 0.4156 0.2640 -0.8704
vn 0.4156 0.2640 0.8704
vn 0.4156 -0.0892 -0.9052
vn 0.4156 -0.5770 0.7031
vn 0.4156 -0.9052 0.0892
vn 0.4156 0.0892 -0.9052
vn 0.4156 0.8021 0.4288
vn 0.4156 -0.0892 0.9052
vn 0.4156 0.8021 -0.4288
vn 0.4156 0.4288 -0.8021
vn 0.4156 0.5770 0.7031
vn 0.4156 0.8704 0.2640
vn 0.4156 -0.2640 0.8704
vn 0.0000 0.9952 0.0980
usemtl None
s off
f 1/1/1 27/2/1 166/3/1 192/4/1
f 14/5/2 179/6/2 180/7/2 13/8/2
f 21/9/3 172/10/3 173/11/3 20/12/3
f 9/13/4 8/14/4 185/15/4 184/16/4
f 19/17/5 174/18/5 175/19/5 18/20/5
f 13/8/6 180/7/6 181/21/6 12/22/6
f 17/23/7 176/24/7 177/25/7 16/26/7
f 8/14/8 7/27/8 186/28/8 185/15/8
f 10/29/9 30/30/9 163/31/9 183/32/9
f 16/26/10 177/25/10 178/33/10 15/34/10
f 3/35/11 2/36/11 191/37/11 190/38/11
f 31/39/12 10/29/12 183/32/12 162/40/12
f 15/34/13 178/33/13 179/6/13 14/5/13
f 32/41/14 31/39/14 162/40/14 161/42/14
f 30/30/15 29/43/15 164/44/15 163/31/15
f 24/45/16 169/46/16 170/47/16 23/48/16
f 7/27/17 6/49/17 187/50/17 186/28/17
f 25/51/18 168/52/18 169/46/18 24/45/18
f 11/53/19 182/54/19 167/55/19 26/56/19
f 28/57/20 9/13/20 184/16/20 165/58/20
f 22/59/21 171/60/21 172/10/21 21/9/21
f 29/43/22 28/57/22 165/58/22 164/44/22
f 6/49/23 5/61/23 188/62/23 187/50/23
f 2/36/24 1/1/24 192/4/24 191/37/24
f 11/53/25 32/41/25 161/42/25 182/54/25
f 5/61/26 4/63/26 189/64/26 188/62/26
f 18/20/27 175/19/27 176/24/27 17/23/27
f 26/56/28 167/55/28 168/52/28 25/51/28
f 4/63/29 3/35/29 190/38/29 189/64/29
f 20/12/30 173/11/30 174/18/30 19/17/30
f 23/48/31 170/47/31 171/60/31 22/59/31
f 22/59/32 43/65/32 42/66/32 23/48/32
f 15/34/33 50/67/33 49/68/33 16/26/33
f 8/14/34 9/13/34 56/69/34 57/70/34
f 5/61/35 6/49/35 59/71/35 60/72/35
f 17/23/36 48/73/36 47/74/36 18/20/36
f 2/36/37 3/35/37 62/75/37 63/76/37
f 6/49/38 7/27/38 58/77/38 59/71/38
f 19/17/39 46/78/39 45/79/39 20/12/39
f 3/35/40 4/63/40 61/80/40 62/75/40
f 13/8/41 52/81/41 51/82/41 14/5/41
f 21/9/42 44/83/42 43/65/42 22/59/42
f 7/27/43 8/14/43 57/70/43 58/77/43
f 12/22/44 53/84/44 52/81/44 13/8/44
f 32/41/45 11/53/45 54/85/45 33/86/45
f 26/56/46 39/87/46 54/85/46 11/53/46
f 20/12/47 45/79/47 44/83/47 21/9/47
f 27/2/48 38/88/48 53/84/48 12/22/48
f 1/1/49 2/36/49 63/76/49 64/89/49
f 25/51/50 40/90/50 39/87/50 26/56/50
f 14/5/51 51/82/51 50/67/51 15/34/51
f 30/30/52 10/29/52 55/91/52 35/92/52
f 18/20/53 47/74/53 46/78/53 19/17/53
f 10/29/54 31/39/54 34/93/54 55/91/54
f 28/57/55 29/43/55 36/94/55 37/95/55
f 4/63/56 5/61/56 60/72/56 61/80/56
f 23/48/57 42/66/57 41/96/57 24/45/57
f 29/43/58 30/30/58 35/92/58 36/94/58
f 9/13/59 28/57/59 37/95/59 56/69/59
f 16/26/60 49/68/60 48/73/60 17/23/60
f 24/45/61 41/96/61 40/90/61 25/51/61
f 31/39/62 32/41/62 33/86/62 34/93/62
f 27/2/63 1/1/63 64/89/63 38/88/63
f 63/76/64 62/75/64 67/97/64 66/98/64
f 55/91/65 34/93/65 95/99/65 74/100/65
f 64/89/66 63/76/66 66/98/66 65/101/66
f 34/93/67 33/86/67 96/102/67 95/99/67
f 35/92/68 55/91/68 74/100/68 94/103/68
f 58/77/69 57/70/69 72/104/69 71/105/69
f 60/72/70 59/71/70 70/106/70 69/107/70
f 40/90/71 89/108/71 90/109/71 39/87/71
f 37/95/72 36/94/72 93/110/72 92/111/72
f 47/74/73 82/112/73 83/113/73 46/78/73
f 38/88/74 64/89/74 65/101/74 91/114/74
f 41/96/75 88/115/75 89/108/75 40/90/75
f 36/94/76 35/92/76 94/103/76 93/110/76
f 33/86/77 54/85/77 75/116/77 96/102/77
f 38/88/78 91/114/78 76/117/78 53/84/78
f 42/66/79 87/118/79 88/115/79 41/96/79
f 59/71/80 58/77/80 71/105/80 70/106/80
f 61/80/81 60/72/81 69/107/81 68/119/81
f 50/67/82 79/120/82 80/121/82 49/68/82
f 49/68/83 80/121/83 81/122/83 48/73/83
f 39/87/84 90/109/84 75/116/84 54/85/84
f 53/84/85 76/117/85 77/123/85 52/81/85
f 48/73/86 81/122/86 82/112/86 47/74/86
f 45/79/87 84/124/87 85/125/87 44/83/87
f 52/81/88 77/123/88 78/126/88 51/82/88
f 46/78/89 83/113/89 84/124/89 45/79/89
f 57/70/90 56/69/90 73/127/90 72/104/90
f 56/69/91 37/95/91 92/111/91 73/127/91
f 62/75/92 61/80/92 68/119/92 67/97/92
f 51/82/93 78/126/93 79/120/93 50/67/93
f 43/65/94 86/128/94 87/118/94 42/66/94
f 44/83/95 85/125/95 86/128/95 43/65/95
f 144/129/96 145/130/96 112/131/96 113/132/96
f 134/133/97 123/134/97 122/135/97 135/136/97
f 150/137/98 151/138/98 106/139/98 107/140/98
f 131/141/99 126/142/99 125/143/99 132/144/99
f 136/145/100 121/146/100 120/147/100 137/148/100
f 141/149/101 142/150/101 115/151/101 116/152/101
f 145/130/102 146/153/102 111/154/102 112/131/102
f 154/155/103 139/156/103 118/157/103 103/158/103
f 132/144/104 125/143/104 124/159/104 133/160/104
f 149/161/105 150/137/105 107/140/105 108/162/105
f 142/150/106 143/163/106 114/164/106 115/151/106
f 137/148/107 120/147/107 101/165/107 156/166/107
f 147/167/108 148/168/108 109/169/108 110/170/108
f 148/168/109 149/161/109 108/162/109 109/169/109
f 143/163/110 144/129/110 113/132/110 114/164/110
f 140/171/111 141/149/111 116/152/111 117/172/111
f 152/173/112 153/174/112 104/175/112 105/176/112
f 156/166/113 101/165/113 100/177/113 157/178/113
f 133/160/114 124/159/114 123/134/114 134/133/114
f 158/179/115 99/180/115 119/181/115 138/182/115
f 129/183/116 128/184/116 127/185/116 130/186/116
f 130/186/117 127/185/117 126/142/117 131/141/117
f 155/187/118 140/171/118 117/172/118 102/188/118
f 157/178/119 100/177/119 99/180/119 158/179/119
f 146/153/120 147/167/120 110/170/120 111/154/120
f 153/174/121 154/155/121 103/158/121 104/175/121
f 135/136/122 122/135/122 121/146/122 136/145/122
f 159/189/123 98/190/123 97/191/123 160/192/123
f 138/182/124 119/181/124 98/190/124 159/189/124
f 151/138/125 152/173/125 105/176/125 106/139/125
f 155/187/126 102/188/126 128/184/126 129/183/126
f 160/192/127 97/191/127 118/157/127 139/156/127
f 175/19/128 174/18/128 147/167/128 146/153/128
f 168/52/129 167/55/129 154/155/129 153/174/129
f 166/3/130 181/21/130 140/171/130 155/187/130
f 162/40/131 159/189/131 160/192/131 161/42/131
f 177/25/132 176/24/132 145/130/132 144/129/132
f 164/44/133 157/178/133 158/179/133 163/31/133
f 189/64/134 132/144/134 133/160/134 188/62/134
f 183/32/135 138/182/135 159/189/135 162/40/135
f 179/6/136 178/33/136 143/163/136 142/150/136
f 192/4/137 129/183/137 130/186/137 191/37/137
f 166/3/138 155/187/138 129/183/138 192/4/138
f 169/46/139 168/52/139 153/174/139 152/173/139
f 184/16/140 137/148/140 156/166/140 165/58/140
f 170/47/141 169/46/141 152/173/141 151/138/141
f 163/31/142 158/179/142 138/182/142 183/32/142
f 165/58/143 156/166/143 157/178/143 164/44/143
f 161/42/144 160/192/144 139/156/144 182/54/144
f 172/10/145 171/60/145 150/137/145 149/161/145
f 190/38/146 131/141/146 132/144/146 189/64/146
f 187/50/147 134/133/147 135/136/147 186/28/147
f 176/24/148 175/19/148 146/153/148 145/130/148
f 185/15/149 136/145/149 137/148/149 184/16/149
f 171/60/150 170/47/150 151/138/150 150/137/150
f 167/55/151 182/54/151 139/156/151 154/155/151
f 186/28/152 135/136/152 136/145/152 185/15/152
f 180/7/153 179/6/153 142/150/153 141/149/153
f 174/18/154 173/11/154 148/168/154 147/167/154
f 191/37/155 130/186/155 131/141/155 190/38/155
f 188/62/156 133/160/156 134/133/156 187/50/156
f 178/33/157 177/25/157 144/129/157 143/163/157
f 181/21/158 180/7/158 141/149/158 140/171/158
f 173/11/159 172/10/159 149/161/159 148/168/159
f 12/22/160 181/21/160 166/3/160 27/2/160
