# Blender v2.80 (sub 74) OBJ File: ''
# www.blender.org
o Circle
v -0.516462 -1.304860 -0.768144
v -0.449765 -1.392016 -0.703009
v -0.400000 -1.524946 -0.692820
v -0.395187 -1.729221 -0.798235
v -0.440761 -1.777235 -0.900227
v -0.506301 -1.738682 -0.990690
v -0.569718 -1.628340 -1.039134
v -0.616059 -1.409240 -0.991038
v -0.577610 -1.294699 -0.866271
v 0.098120 -1.091186 -0.920408
v 0.107345 -1.177119 -0.827639
v 0.138918 -1.309535 -0.787846
v 0.210365 -1.514730 -0.865505
v 0.241012 -1.565015 -0.972929
v 0.248954 -1.529139 -1.084357
v 0.231513 -1.421722 -1.162231
v 0.165098 -1.201516 -1.155174
v 0.114353 -1.083327 -1.034883
v 0.666791 -0.879700 -0.642003
v 0.614227 -0.963718 -0.565008
v 0.612835 -1.095597 -0.514230
v 0.717485 -1.302823 -0.527796
v 0.810013 -1.356802 -0.590387
v 0.887721 -1.325094 -0.670641
v 0.924417 -1.221949 -0.741507
v 0.869004 -0.999824 -0.778792
v 0.752809 -0.875702 -0.719262
v 0.923463 -0.678260 -0.063197
v 0.833706 -0.759661 -0.038004
v 0.800000 -0.890957 -0.000001
v 0.888886 -1.101287 0.056875
v 1.000000 -1.160370 0.068404
v 1.111114 -1.134325 0.056875
v 1.184775 -1.036781 0.026177
v 1.166293 -0.812070 -0.038004
v 1.039017 -0.679691 -0.067090
v 0.748036 -0.494779 0.545179
v 0.663084 -0.572852 0.506783
v 0.612836 -0.703500 0.514229
v 0.644367 -0.917970 0.614934
v 0.722075 -0.983549 0.695188
v 0.814604 -0.964666 0.757779
v 0.890765 -0.874040 0.781611
v 0.917861 -0.646208 0.720566
v 0.839058 -0.503216 0.616474
v 0.222595 -0.337148 0.898459
v 0.182198 -0.411251 0.814441
v 0.138919 -0.541167 0.787846
v 0.098342 -0.760563 0.885258
v 0.106284 -0.832524 0.996686
v 0.136932 -0.819116 1.104110
v 0.179955 -0.732358 1.171322
v 0.239951 -0.503625 1.141975
v 0.246494 -0.352813 1.011582
v -0.407001 -0.190278 0.831341
v -0.383941 -0.263600 0.741012
v -0.399999 -0.392992 0.692820
v -0.493698 -0.612501 0.741360
v -0.559239 -0.685426 0.831823
v -0.604812 -0.673085 0.933815
v -0.615057 -0.587400 1.012957
v -0.550234 -0.359243 1.029041
v -0.461407 -0.207011 0.933360
v -0.846156 -0.038478 0.375229
v -0.770429 -0.111066 0.320856
v -0.751754 -0.239960 0.273617
v -0.854732 -0.459551 0.250571
v -0.963088 -0.533405 0.277742
v -1.063558 -0.522094 0.326578
v -1.122277 -0.437448 0.380619
v -1.082959 -0.209846 0.434608
v -0.953411 -0.056243 0.418409
v -0.889386 0.118077 -0.256457
v -0.796425 0.046196 -0.249432
v -0.751754 -0.082218 -0.273615
v -0.815827 -0.301889 -0.357462
v -0.916297 -0.376638 -0.406298
v -1.024653 -0.366320 -0.433468
v -1.104372 -0.282673 -0.429815
v -1.108955 -0.055609 -0.363184
v -0.999303 0.099318 -0.292321
v -0.516462 0.279212 -0.768144
v -0.449765 0.208013 -0.703008
v -0.400000 0.080059 -0.692820
v -0.395187 -0.139687 -0.798235
v -0.440761 -0.215299 -0.900227
v -0.506302 -0.205936 -0.990690
v -0.569718 -0.123253 -1.039134
v -0.616059 0.103295 -0.991037
v -0.577610 0.259496 -0.866270
v 0.098120 0.444753 -0.920408
v 0.107345 0.374207 -0.827639
v 0.138918 0.246697 -0.787846
v 0.210365 0.026877 -0.865505
v 0.241012 -0.049563 -0.972929
v 0.248954 -0.041118 -1.084357
v 0.231513 0.040638 -1.162230
v 0.165098 0.266691 -1.155174
v 0.114352 0.424116 -1.034882
v 0.666791 0.614524 -0.642003
v 0.614227 0.544606 -0.565008
v 0.612835 0.417520 -0.514230
v 0.717485 0.197631 -0.527796
v 0.810013 0.120396 -0.590387
v 0.887721 0.127959 -0.670641
v 0.924416 0.208827 -0.741507
v 0.869004 0.434403 -0.778791
v 0.752809 0.593005 -0.719262
v 0.923463 0.788350 -0.063198
v 0.833706 0.719034 -0.038004
v 0.800000 0.592354 -0.000001
v 0.888886 0.372398 0.056875
v 1.000000 0.294402 0.068403
v 1.111114 0.301121 0.056875
v 1.184775 0.381136 0.026176
v 1.166293 0.606256 -0.038004
v 1.039017 0.765985 -0.067090
v 0.748036 0.966056 0.545178
v 0.663084 0.897315 0.506783
v 0.612836 0.771025 0.514229
v 0.644367 0.551004 0.614934
v 0.722075 0.472281 0.695187
v 0.814604 0.478193 0.757779
v 0.890765 0.557394 0.781611
v 0.917861 0.782076 0.720566
v 0.839058 0.942882 0.616473
v 0.222595 1.147469 0.898459
v 0.182198 1.079275 0.814440
v 0.138919 0.953356 0.787846
v 0.098342 0.733274 0.885258
v 0.106284 0.653859 0.996685
v 0.136932 0.659000 1.104110
v 0.179956 0.737423 1.171321
v 0.239951 0.961687 1.141975
v 0.246495 1.123523 1.011582
v -0.407001 1.332413 0.831341
v -0.383940 1.264740 0.741012
v -0.399999 1.139174 0.692820
v -0.493698 0.919034 0.741360
v -0.559239 0.838959 0.831823
v -0.604812 0.843367 0.933815
v -0.615057 0.921049 1.012957
v -0.550234 1.144916 1.029041
v -0.461407 1.307733 0.933361
v -0.846156 1.520712 0.375229
v -0.770429 1.453535 0.320856
v -0.751753 1.328303 0.273617
v -0.854732 1.108108 0.250572
v -0.963087 1.027407 0.277742
v -1.063558 1.031120 0.326578
v -1.122277 1.108097 0.380619
v -1.082959 1.331587 0.434608
v -0.953411 1.495335 0.418409
v -0.889386 1.712193 -0.256456
v -0.796425 1.645485 -0.249432
v -0.751754 1.520569 -0.273615
v -0.815827 1.300322 -0.357462
v -0.916297 1.219028 -0.406298
v -1.024653 1.222083 -0.433468
v -1.104372 1.298394 -0.429815
v -1.108955 1.521525 -0.363184
v -0.999303 1.686155 -0.292320
v -0.516462 1.906681 -0.768143
v -0.449765 1.840414 -0.703008
v -0.400001 1.715797 -0.692819
v -0.395188 1.495501 -0.798235
v -0.440761 1.413648 -0.900226
v -0.506302 1.416081 -0.990690
v -0.569718 1.491763 -1.039134
v -0.616059 1.714555 -0.991037
v -0.577611 1.880019 -0.866270
vt 0.984225 0.990588
vt 0.939357 0.990588
vt 0.936895 0.921767
vt 0.984225 0.921767
vt 0.928080 0.250586
vt 0.873449 0.250586
vt 0.873236 0.137099
vt 0.928191 0.137099
vt 0.984225 0.728649
vt 0.934047 0.728649
vt 0.932205 0.609212
vt 0.984225 0.609212
vt 0.984225 0.370826
vt 0.928518 0.370826
vt 0.984225 0.250586
vt 0.984225 0.137099
vt 0.929133 0.017634
vt 0.984225 0.017634
vt 0.984225 0.822978
vt 0.935467 0.822978
vt 0.984225 0.490577
vt 0.929566 0.490577
vt 0.817243 0.137099
vt 0.817236 0.017634
vt 0.873418 0.017634
vt 0.880901 0.921767
vt 0.880073 0.822978
vt 0.877642 0.609212
vt 0.875446 0.490577
vt 0.882447 0.990588
vt 0.879092 0.728649
vt 0.874226 0.370826
vt 0.825521 0.990588
vt 0.768626 0.990588
vt 0.766873 0.921767
vt 0.824051 0.921767
vt 0.823113 0.822978
vt 0.822029 0.728649
vt 0.818905 0.490577
vt 0.817942 0.370826
vt 0.817355 0.250586
vt 0.820655 0.609212
vt 0.709756 0.921767
vt 0.708428 0.822978
vt 0.765652 0.822978
vt 0.764348 0.728649
vt 0.763028 0.609212
vt 0.761384 0.370826
vt 0.761154 0.250586
vt 0.761196 0.137099
vt 0.760999 0.017634
vt 0.761894 0.490577
vt 0.651568 0.822978
vt 0.650223 0.728649
vt 0.707043 0.728649
vt 0.705799 0.609212
vt 0.705173 0.490577
vt 0.711614 0.990588
vt 0.704890 0.370826
vt 0.704711 0.250586
vt 0.704854 0.137099
vt 0.704456 0.017634
vt 0.593855 0.728649
vt 0.592620 0.609212
vt 0.649020 0.609212
vt 0.648556 0.490577
vt 0.648309 0.370826
vt 0.647904 0.250586
vt 0.647700 0.137099
vt 0.652831 0.921767
vt 0.654513 0.990588
vt 0.647236 0.017634
vt 0.536833 0.609212
vt 0.536167 0.490577
vt 0.592009 0.490577
vt 0.591823 0.370826
vt 0.591614 0.250586
vt 0.591128 0.137099
vt 0.590738 0.017634
vt 0.595170 0.822978
vt 0.596360 0.921767
vt 0.597857 0.990588
vt 0.480932 0.490577
vt 0.480745 0.370826
vt 0.535966 0.370826
vt 0.541799 0.990588
vt 0.540464 0.921767
vt 0.538071 0.728649
vt 0.536000 0.250586
vt 0.535582 0.137099
vt 0.535354 0.017634
vt 0.539346 0.822978
vt 0.426029 0.370826
vt 0.426150 0.250586
vt 0.480822 0.250586
vt 0.480508 0.137099
vt 0.485087 0.921767
vt 0.484050 0.822978
vt 0.481599 0.609212
vt 0.486235 0.990588
vt 0.482825 0.728649
vt 0.480337 0.017634
vt 0.431123 0.990588
vt 0.376457 0.990588
vt 0.375705 0.921767
vt 0.430174 0.921767
vt 0.425957 0.137099
vt 0.425861 0.017634
vt 0.429225 0.822978
vt 0.428054 0.728649
vt 0.426197 0.490577
vt 0.426849 0.609212
vt 0.321656 0.921767
vt 0.320879 0.822978
vt 0.374842 0.822978
vt 0.373727 0.728649
vt 0.372550 0.609212
vt 0.371781 0.370826
vt 0.371945 0.250586
vt 0.371861 0.137099
vt 0.371973 0.017634
vt 0.371925 0.490577
vt 0.269658 0.822978
vt 0.269658 0.728649
vt 0.319820 0.728649
vt 0.318677 0.609212
vt 0.318095 0.490577
vt 0.322215 0.990588
vt 0.317984 0.370826
vt 0.318197 0.250586
vt 0.318227 0.137099
vt 0.318552 0.017634
vt 0.225834 0.728649
vt 0.225834 0.609212
vt 0.269658 0.609212
vt 0.269658 0.490577
vt 0.269658 0.370826
vt 0.269658 0.250586
vt 0.269658 0.137099
vt 0.269658 0.921767
vt 0.269658 0.990588
vt 0.269658 0.017634
vt 0.172036 0.609212
vt 0.172036 0.490577
vt 0.225834 0.490577
vt 0.225834 0.370826
vt 0.225834 0.250586
vt 0.225834 0.137099
vt 0.225834 0.017634
vt 0.225834 0.822978
vt 0.225834 0.921767
vt 0.225834 0.990588
vt 0.112504 0.490577
vt 0.112504 0.370826
vt 0.172036 0.370826
vt 0.172036 0.990588
vt 0.172036 0.921767
vt 0.172036 0.728649
vt 0.172036 0.250586
vt 0.172036 0.137099
vt 0.172036 0.017634
vt 0.172036 0.822978
vt 0.062908 0.370826
vt 0.062908 0.250586
vt 0.112504 0.250586
vt 0.112504 0.137099
vt 0.112504 0.921767
vt 0.112504 0.822978
vt 0.112504 0.609212
vt 0.112504 0.990588
vt 0.112504 0.728649
vt 0.112504 0.017634
vt 0.062908 0.990588
vt 0.011443 0.990588
vt 0.011443 0.921767
vt 0.062908 0.921767
vt 0.062908 0.137099
vt 0.062908 0.017634
vt 0.062908 0.822978
vt 0.062908 0.728649
vt 0.062908 0.490577
vt 0.062908 0.609212
vt 0.011443 0.728649
vt 0.011443 0.609212
vt 0.011443 0.370826
vt 0.011443 0.250586
vt 0.011443 0.137099
vt 0.011443 0.017634
vt 0.011443 0.822978
vt 0.011443 0.490577
vn -0.1964 0.0723 -0.9778
vn -0.2853 0.9539 -0.0932
vn 0.3279 -0.8640 0.3822
vn -0.0630 0.6574 0.7509
vn -0.3399 0.6734 -0.6565
vn 0.2171 -0.8942 -0.3916
vn 0.1095 0.2163 0.9702
vn -0.2754 0.9513 0.1388
vn 0.0125 -0.4983 -0.8669
vn 0.2601 -0.3533 0.8986
vn 0.6249 0.6453 -0.4395
vn 0.5624 -0.5108 -0.6503
vn -0.3804 -0.3516 0.8554
vn 0.4787 0.0720 -0.8750
vn -0.0116 -0.8561 0.5166
vn -0.5285 0.6636 0.5294
vn 0.1743 0.6614 -0.7294
vn 0.4012 -0.9052 -0.1399
vn -0.5394 0.2172 0.8135
vn 0.9438 0.0713 0.3227
vn 0.3557 -0.9222 0.1515
vn -0.9349 0.2189 0.2792
vn -0.1162 0.9590 -0.2584
vn 0.8369 -0.5298 -0.1376
vn -0.8449 -0.3496 0.4049
vn 0.9297 0.0717 -0.3614
vn -0.3745 -0.8460 0.3796
vn -0.7348 0.6748 0.0690
vn 0.2837 -0.5818 0.7622
vn -0.5539 -0.8325 0.0088
vn -0.6005 0.6912 -0.4021
vn 0.7752 0.6249 0.0927
vn 0.1321 -0.9437 0.3034
vn -0.8975 0.2215 -0.3815
vn 0.1222 0.9647 -0.2333
vn 0.7180 -0.5564 0.4181
vn -0.9054 -0.3473 -0.2444
vn -0.2263 -0.9686 0.1030
vn -0.5236 -0.3448 -0.7791
vn 0.5139 0.0712 0.8549
vn -0.4143 -0.8170 -0.4011
vn -0.2128 0.7128 -0.6683
vn 0.5242 0.6062 0.5981
vn -0.0948 -0.9632 0.2516
vn -0.4498 0.2250 -0.8643
vn 0.2480 0.9683 -0.0280
vn 0.3466 -0.8014 -0.4876
vn 0.2060 0.2274 -0.9518
vn 0.1926 0.9659 0.1728
vn -0.2742 -0.5915 0.7583
vn 0.1073 -0.3431 -0.9331
vn -0.1556 0.0711 0.9853
vn -0.0441 -0.8057 -0.5907
vn 0.2539 0.7260 -0.6391
vn 0.0128 0.5953 0.8034
vn 0.9378 -0.3416 -0.0617
vn 0.6071 0.7277 -0.3193
vn -0.5064 0.5912 0.6277
vn -0.2365 -0.9686 -0.0771
vn 0.7708 0.2277 -0.5950
vn 0.0344 0.9631 0.2671
vn -0.6977 -0.5947 0.3993
vn 0.6803 -0.3424 -0.6480
vn -0.7522 0.0712 0.6550
vn 0.7171 0.2282 0.6586
vn -0.9973 0.0712 0.0187
vn 0.5834 -0.7972 -0.1553
vn 0.6672 0.7292 0.1520
vn -0.7937 0.5873 0.1584
vn -0.1228 -0.9684 -0.2169
vn 0.9728 0.2279 0.0416
vn -0.1536 0.9602 0.2334
vn -0.7880 -0.5979 -0.1467
vn -0.0467 0.7321 0.6796
vn -0.2779 0.9573 0.0799
vn -0.5044 -0.6010 -0.6200
vn 0.7597 -0.3409 0.5537
vn -0.7762 0.0713 -0.6264
vn 0.5528 -0.7932 0.2555
vn 0.4072 0.7307 0.5480
vn -0.7134 0.5835 -0.3880
vn 0.0554 -0.9682 -0.2439
vn 0.4814 0.0714 -0.8736
vn -0.3002 0.5800 -0.7573
vn 0.2060 -0.9679 -0.1441
vn 0.1241 0.2284 0.9656
vn -0.2716 0.9544 -0.1238
vn 0.0166 -0.6040 -0.7968
vn 0.2284 -0.3403 0.9122
vn -0.1924 0.0713 -0.9787
vn 0.2640 -0.7893 0.5543
vn 0.7846 -0.6096 -0.1130
vn -0.1526 -0.7856 0.5996
vn -0.4761 0.7334 0.4853
vn 0.2555 0.5766 -0.7761
vn 0.2509 -0.9675 0.0313
vn -0.5271 0.2287 0.8185
vn -0.1299 0.9516 -0.2785
vn 0.5267 -0.6068 -0.5953
vn -0.4094 -0.3396 0.8468
vn -0.0044 -0.9665 0.2565
vn -0.8572 -0.3390 0.3876
vn 0.9302 0.0714 -0.3602
vn -0.5044 -0.7821 0.3660
vn -0.6759 0.7346 0.0597
vn 0.6954 0.5733 -0.4332
vn 0.1667 -0.9670 0.1925
vn -0.9303 0.2289 0.2865
vn 0.0840 0.9488 -0.3044
vn -0.4572 -0.7755 -0.4355
vn -0.8962 0.2291 -0.3800
vn 0.2679 0.9461 -0.1818
vn 0.6698 -0.6122 0.4201
vn -0.9066 -0.3384 -0.2522
vn 0.9442 0.0715 0.3217
vn -0.6260 -0.7787 -0.0417
vn -0.5517 0.7358 -0.3927
vn 0.8136 0.5702 0.1135
vn 0.0872 -0.3374 -0.9373
vn -0.1646 0.7368 -0.6557
vn 0.5530 0.5673 0.6102
vn -0.1755 -0.9660 0.1899
vn -0.4408 0.2294 -0.8678
vn 0.3295 0.9435 0.0358
vn 0.2387 -0.6147 0.7517
vn -0.5341 -0.3379 -0.7750
vn 0.5168 0.0715 0.8531
vn 0.7798 0.2297 -0.5824
vn -0.1521 0.0716 0.9858
vn -0.0729 -0.7724 -0.6310
vn 0.2997 0.7379 -0.6048
vn 0.0332 0.5645 0.8247
vn -0.2595 -0.9654 0.0255
vn 0.2216 0.2296 -0.9477
vn 0.2330 0.9409 0.2457
vn -0.3031 -0.6171 0.7261
vn 0.6429 0.7397 0.1989
vn 0.0192 0.9384 0.3449
vn -0.6990 -0.6194 0.3574
vn 0.6682 -0.3369 -0.6634
vn -0.7500 0.0716 0.6576
vn 0.3500 -0.7695 -0.5342
vn 0.6194 0.7388 -0.2657
vn -0.5045 0.5619 0.6556
vn -0.2130 -0.9648 -0.1543
vn -0.7782 0.0717 -0.6239
vn -0.8091 0.5595 0.1798
vn -0.0581 -0.9642 -0.2589
vn 0.9716 0.2299 0.0564
vn -0.2122 0.9361 0.2807
vn -0.7627 -0.6216 -0.1785
vn 0.9383 -0.3364 -0.0804
vn -0.9972 0.0716 0.0220
vn 0.6142 -0.7667 -0.1870
vn 0.5942 -0.7641 0.2511
vn 0.3603 0.7405 0.5673
vn -0.7374 0.5571 -0.3818
vn 0.1284 -0.9635 -0.2348
vn 0.7071 0.2301 0.6687
vn -0.3491 0.9338 0.0785
vn -0.4659 -0.6237 -0.6277
vn 0.7715 -0.3359 0.5404
s off
f 8/1/1 17/2/1 16/3/1 7/4/1
f 10/5/2 19/6/2 27/7/2 18/8/2
f 5/9/3 14/10/3 13/11/3 4/12/3
f 2/13/4 11/14/4 10/5/4 1/15/4
f 9/16/5 18/8/5 17/17/5 8/18/5
f 6/19/6 15/20/6 14/10/6 5/9/6
f 3/21/7 12/22/7 11/14/7 2/13/7
f 1/15/8 10/5/8 18/8/8 9/16/8
f 7/4/9 16/3/9 15/20/9 6/19/9
f 4/12/10 13/11/10 12/22/10 3/21/10
f 27/7/11 36/23/11 35/24/11 26/25/11
f 16/3/12 25/26/12 24/27/12 15/20/12
f 13/11/13 22/28/13 21/29/13 12/22/13
f 17/2/14 26/30/14 25/26/14 16/3/14
f 14/10/15 23/31/15 22/28/15 13/11/15
f 11/14/16 20/32/16 19/6/16 10/5/16
f 18/8/17 27/7/17 26/25/17 17/17/17
f 15/20/18 24/27/18 23/31/18 14/10/18
f 12/22/19 21/29/19 20/32/19 11/14/19
f 35/33/20 44/34/20 43/35/20 34/36/20
f 24/27/21 33/37/21 32/38/21 23/31/21
f 21/29/22 30/39/22 29/40/22 20/32/22
f 19/6/23 28/41/23 36/23/23 27/7/23
f 25/26/24 34/36/24 33/37/24 24/27/24
f 22/28/25 31/42/25 30/39/25 21/29/25
f 26/30/26 35/33/26 34/36/26 25/26/26
f 23/31/27 32/38/27 31/42/27 22/28/27
f 20/32/28 29/40/28 28/41/28 19/6/28
f 43/35/29 52/43/29 51/44/29 42/45/29
f 32/38/30 41/46/30 40/47/30 31/42/30
f 29/40/31 38/48/31 37/49/31 28/41/31
f 36/23/32 45/50/32 44/51/32 35/24/32
f 33/37/33 42/45/33 41/46/33 32/38/33
f 30/39/34 39/52/34 38/48/34 29/40/34
f 28/41/35 37/49/35 45/50/35 36/23/35
f 34/36/36 43/35/36 42/45/36 33/37/36
f 31/42/37 40/47/37 39/52/37 30/39/37
f 51/44/38 60/53/38 59/54/38 50/55/38
f 40/47/39 49/56/39 48/57/39 39/52/39
f 44/34/40 53/58/40 52/43/40 43/35/40
f 41/46/41 50/55/41 49/56/41 40/47/41
f 38/48/42 47/59/42 46/60/42 37/49/42
f 45/50/43 54/61/43 53/62/43 44/51/43
f 42/45/44 51/44/44 50/55/44 41/46/44
f 39/52/45 48/57/45 47/59/45 38/48/45
f 37/49/46 46/60/46 54/61/46 45/50/46
f 59/54/47 68/63/47 67/64/47 58/65/47
f 48/57/48 57/66/48 56/67/48 47/59/48
f 46/60/49 55/68/49 63/69/49 54/61/49
f 52/43/50 61/70/50 60/53/50 51/44/50
f 49/56/51 58/65/51 57/66/51 48/57/51
f 53/58/52 62/71/52 61/70/52 52/43/52
f 50/55/53 59/54/53 58/65/53 49/56/53
f 47/59/54 56/67/54 55/68/54 46/60/54
f 54/61/55 63/69/55 62/72/55 53/62/55
f 67/64/56 76/73/56 75/74/56 66/75/56
f 56/67/57 65/76/57 64/77/57 55/68/57
f 63/69/58 72/78/58 71/79/58 62/72/58
f 60/53/59 69/80/59 68/63/59 59/54/59
f 57/66/60 66/75/60 65/76/60 56/67/60
f 55/68/61 64/77/61 72/78/61 63/69/61
f 61/70/62 70/81/62 69/80/62 60/53/62
f 58/65/63 67/64/63 66/75/63 57/66/63
f 62/71/64 71/82/64 70/81/64 61/70/64
f 75/74/65 84/83/65 83/84/65 74/85/65
f 71/82/66 80/86/66 79/87/66 70/81/66
f 68/63/67 77/88/67 76/73/67 67/64/67
f 65/76/68 74/85/68 73/89/68 64/77/68
f 72/78/69 81/90/69 80/91/69 71/79/69
f 69/80/70 78/92/70 77/88/70 68/63/70
f 66/75/71 75/74/71 74/85/71 65/76/71
f 64/77/72 73/89/72 81/90/72 72/78/72
f 70/81/73 79/87/73 78/92/73 69/80/73
f 83/84/74 92/93/74 91/94/74 82/95/74
f 73/89/75 82/95/75 90/96/75 81/90/75
f 79/87/76 88/97/76 87/98/76 78/92/76
f 76/73/77 85/99/77 84/83/77 75/74/77
f 80/86/78 89/100/78 88/97/78 79/87/78
f 77/88/79 86/101/79 85/99/79 76/73/79
f 74/85/80 83/84/80 82/95/80 73/89/80
f 81/90/81 90/96/81 89/102/81 80/91/81
f 78/92/82 87/98/82 86/101/82 77/88/82
f 98/103/83 107/104/83 106/105/83 97/106/83
f 90/96/84 99/107/84 98/108/84 89/102/84
f 87/98/85 96/109/85 95/110/85 86/101/85
f 84/83/86 93/111/86 92/93/86 83/84/86
f 82/95/87 91/94/87 99/107/87 90/96/87
f 88/97/88 97/106/88 96/109/88 87/98/88
f 85/99/89 94/112/89 93/111/89 84/83/89
f 89/100/90 98/103/90 97/106/90 88/97/90
f 86/101/91 95/110/91 94/112/91 85/99/91
f 106/105/92 115/113/92 114/114/92 105/115/92
f 95/110/93 104/116/93 103/117/93 94/112/93
f 92/93/94 101/118/94 100/119/94 91/94/94
f 99/107/95 108/120/95 107/121/95 98/108/95
f 96/109/96 105/115/96 104/116/96 95/110/96
f 93/111/97 102/122/97 101/118/97 92/93/97
f 91/94/98 100/119/98 108/120/98 99/107/98
f 97/106/99 106/105/99 105/115/99 96/109/99
f 94/112/100 103/117/100 102/122/100 93/111/100
f 114/114/101 123/123/101 122/124/101 113/125/101
f 103/117/102 112/126/102 111/127/102 102/122/102
f 107/104/103 116/128/103 115/113/103 106/105/103
f 104/116/104 113/125/104 112/126/104 103/117/104
f 101/118/105 110/129/105 109/130/105 100/119/105
f 108/120/106 117/131/106 116/132/106 107/121/106
f 105/115/107 114/114/107 113/125/107 104/116/107
f 102/122/108 111/127/108 110/129/108 101/118/108
f 100/119/109 109/130/109 117/131/109 108/120/109
f 122/124/110 131/133/110 130/134/110 121/135/110
f 111/127/111 120/136/111 119/137/111 110/129/111
f 109/130/112 118/138/112 126/139/112 117/131/112
f 115/113/113 124/140/113 123/123/113 114/114/113
f 112/126/114 121/135/114 120/136/114 111/127/114
f 116/128/115 125/141/115 124/140/115 115/113/115
f 113/125/116 122/124/116 121/135/116 112/126/116
f 110/129/117 119/137/117 118/138/117 109/130/117
f 117/131/118 126/139/118 125/142/118 116/132/118
f 130/134/119 139/143/119 138/144/119 129/145/119
f 119/137/120 128/146/120 127/147/120 118/138/120
f 126/139/121 135/148/121 134/149/121 125/142/121
f 123/123/122 132/150/122 131/133/122 122/124/122
f 120/136/123 129/145/123 128/146/123 119/137/123
f 118/138/124 127/147/124 135/148/124 126/139/124
f 124/140/125 133/151/125 132/150/125 123/123/125
f 121/135/126 130/134/126 129/145/126 120/136/126
f 125/141/127 134/152/127 133/151/127 124/140/127
f 138/144/128 147/153/128 146/154/128 137/155/128
f 134/152/129 143/156/129 142/157/129 133/151/129
f 131/133/130 140/158/130 139/143/130 130/134/130
f 128/146/131 137/155/131 136/159/131 127/147/131
f 135/148/132 144/160/132 143/161/132 134/149/132
f 132/150/133 141/162/133 140/158/133 131/133/133
f 129/145/134 138/144/134 137/155/134 128/146/134
f 127/147/135 136/159/135 144/160/135 135/148/135
f 133/151/136 142/157/136 141/162/136 132/150/136
f 146/154/137 155/163/137 154/164/137 145/165/137
f 136/159/138 145/165/138 153/166/138 144/160/138
f 142/157/139 151/167/139 150/168/139 141/162/139
f 139/143/140 148/169/140 147/153/140 138/144/140
f 143/156/141 152/170/141 151/167/141 142/157/141
f 140/158/142 149/171/142 148/169/142 139/143/142
f 137/155/143 146/154/143 145/165/143 136/159/143
f 144/160/144 153/166/144 152/172/144 143/161/144
f 141/162/145 150/168/145 149/171/145 140/158/145
f 161/173/146 170/174/146 169/175/146 160/176/146
f 153/166/147 162/177/147 161/178/147 152/172/147
f 150/168/148 159/179/148 158/180/148 149/171/148
f 147/153/149 156/181/149 155/163/149 146/154/149
f 145/165/150 154/164/150 162/177/150 153/166/150
f 151/167/151 160/176/151 159/179/151 150/168/151
f 148/169/152 157/182/152 156/181/152 147/153/152
f 152/170/153 161/173/153 160/176/153 151/167/153
f 149/171/154 158/180/154 157/182/154 148/169/154
f 158/180/155 167/183/155 166/184/155 157/182/155
f 155/163/156 164/185/156 163/186/156 154/164/156
f 162/177/157 171/187/157 170/188/157 161/178/157
f 159/179/158 168/189/158 167/183/158 158/180/158
f 156/181/159 165/190/159 164/185/159 155/163/159
f 154/164/160 163/186/160 171/187/160 162/177/160
f 160/176/161 169/175/161 168/189/161 159/179/161
f 157/182/162 166/184/162 165/190/162 156/181/162
