# Blender v2.80 (sub 74) OBJ File: ''
# www.blender.org
mtllib Spiral.mtl
o Plane
v 0.000000 0.000000 -0.679128
v 0.126166 0.000000 -0.715525
v 0.266551 0.000000 -0.732342
v 0.418355 0.000000 -0.724612
v 0.577111 0.000000 -0.687774
v 0.736752 0.000000 -0.618208
v 0.889874 0.000000 -0.513769
v 1.028168 0.000000 -0.374222
v 1.143019 0.000000 -0.201545
v 1.226209 0.000000 0.000000
v 1.270651 0.000000 0.224050
v 1.271049 0.000000 0.462624
v 1.224363 0.000000 0.706887
v 1.129931 0.000000 0.948125
v 0.989149 0.000000 1.178823
v 0.804616 0.000000 1.393636
v 0.578728 0.000000 1.590042
v 0.309776 0.000000 1.756833
v -0.000001 0.000000 1.876329
v -0.341889 0.000000 1.938943
v -0.704928 0.000000 1.936771
v -1.076250 0.000000 1.864118
v -1.441542 0.000000 1.717962
v -1.785618 0.000000 1.498310
v -2.093084 0.000000 1.208441
v -2.349063 0.000000 0.854988
v -2.539954 0.000000 0.447861
v -2.654178 0.000000 -0.000001
v -2.682881 0.000000 -0.473066
v -2.620529 0.000000 -0.953796
v -2.465394 0.000000 -1.423398
v -2.219846 0.000000 -1.862674
v -1.890460 0.000000 -2.252965
v -1.487890 0.000000 -2.577106
v -1.026529 0.000000 -2.820371
v -0.523923 0.000000 -2.971328
v 0.000002 0.000000 -3.022553
v 0.000000 0.000000 -0.663842
v 0.123327 0.000000 -0.699420
v 0.260551 0.000000 -0.715858
v 0.408939 0.000000 -0.708303
v 0.564121 0.000000 -0.672293
v 0.720169 0.000000 -0.604294
v 0.869844 0.000000 -0.502205
v 1.005026 0.000000 -0.365799
v 1.117292 0.000000 -0.197009
v 1.198609 0.000000 0.000000
v 1.242051 0.000000 0.219007
v 1.242441 0.000000 0.452212
v 1.196805 0.000000 0.690976
v 1.104499 0.000000 0.926785
v 0.966886 0.000000 1.152290
v 0.786506 0.000000 1.362268
v 0.565702 0.000000 1.554254
v 0.302804 0.000000 1.717290
v -0.000001 0.000000 1.834096
v -0.334193 0.000000 1.895301
v -0.689061 0.000000 1.893178
v -1.052026 0.000000 1.822161
v -1.409096 0.000000 1.679294
v -1.745428 0.000000 1.464587
v -2.045973 0.000000 1.181242
v -2.296190 0.000000 0.835744
v -2.482785 0.000000 0.437781
v -2.594438 0.000000 -0.000001
v -2.622495 0.000000 -0.462418
v -2.561547 0.000000 -0.932328
v -2.409903 0.000000 -1.391360
v -2.169882 0.000000 -1.820750
v -1.847910 0.000000 -2.202256
v -1.454401 0.000000 -2.519101
v -1.003424 0.000000 -2.756890
v -0.512131 0.000000 -2.904450
v 0.000002 0.000000 -2.954522
vt 0.000000 0.000000
vt 0.000000 0.000000
vt 0.000000 0.000000
vt 0.000000 0.000000
vt 0.000000 0.000000
vt 0.000000 0.000000
vt 0.000000 0.000000
vt 0.000000 0.000000
vt 0.000000 0.000000
vt 0.000000 0.000000
vt 0.000000 0.000000
vt 0.000000 0.000000
vt 0.000000 0.000000
vt 0.000000 0.000000
vt 0.000000 0.000000
vt 0.000000 0.000000
vt 0.000000 0.000000
vt 0.000000 0.000000
vt 0.000000 0.000000
vt 0.000000 0.000000
vt 0.000000 0.000000
vt 0.000000 0.000000
vt 0.000000 0.000000
vt 0.000000 0.000000
vt 0.000000 0.000000
vt 0.000000 0.000000
vt 0.000000 0.000000
vt 0.000000 0.000000
vt 0.000000 0.000000
vt 0.000000 0.000000
vt 0.000000 0.000000
vt 0.000000 0.000000
vt 0.000000 0.000000
vt 0.000000 0.000000
vt 0.000000 0.000000
vt 0.000000 0.000000
vt 0.000000 0.000000
vt 0.000000 0.000000
vt 0.000000 0.000000
vt 0.000000 0.000000
vt 0.000000 0.000000
vt 0.000000 0.000000
vt 0.000000 0.000000
vt 0.000000 0.000000
vt 0.000000 0.000000
vt 0.000000 0.000000
vt 0.000000 0.000000
vt 0.000000 0.000000
vt 0.000000 0.000000
vt 0.000000 0.000000
vt 0.000000 0.000000
vt 0.000000 0.000000
vt 0.000000 0.000000
vt 0.000000 0.000000
vt 0.000000 0.000000
vt 0.000000 0.000000
vt 0.000000 0.000000
vt 0.000000 0.000000
vt 0.000000 0.000000
vt 0.000000 0.000000
vt 0.000000 0.000000
vt 0.000000 0.000000
vt 0.000000 0.000000
vt 0.000000 0.000000
vt 0.000000 0.000000
vt 0.000000 0.000000
vt 0.000000 0.000000
vt 0.000000 0.000000
vt 0.000000 0.000000
vt 0.000000 0.000000
vt 0.000000 0.000000
vt 0.000000 0.000000
vt 0.000000 0.000000
vt 0.000000 0.000000
vn 0.0000 -1.0000 0.0000
usemtl None
s off
f 12/1/1 13/2/1 50/3/1 49/4/1
f 26/5/1 27/6/1 64/7/1 63/8/1
f 13/2/1 14/9/1 51/10/1 50/3/1
f 27/6/1 28/11/1 65/12/1 64/7/1
f 14/9/1 15/13/1 52/14/1 51/10/1
f 1/15/1 2/16/1 39/17/1 38/18/1
f 28/11/1 29/19/1 66/20/1 65/12/1
f 15/13/1 16/21/1 53/22/1 52/14/1
f 2/16/1 3/23/1 40/24/1 39/17/1
f 29/19/1 30/25/1 67/26/1 66/20/1
f 16/21/1 17/27/1 54/28/1 53/22/1
f 3/23/1 4/29/1 41/30/1 40/24/1
f 30/25/1 31/31/1 68/32/1 67/26/1
f 17/27/1 18/33/1 55/34/1 54/28/1
f 4/29/1 5/35/1 42/36/1 41/30/1
f 31/31/1 32/37/1 69/38/1 68/32/1
f 18/33/1 19/39/1 56/40/1 55/34/1
f 5/35/1 6/41/1 43/42/1 42/36/1
f 32/37/1 33/43/1 70/44/1 69/38/1
f 19/39/1 20/45/1 57/46/1 56/40/1
f 6/41/1 7/47/1 44/48/1 43/42/1
f 33/43/1 34/49/1 71/50/1 70/44/1
f 20/45/1 21/51/1 58/52/1 57/46/1
f 7/47/1 8/53/1 45/54/1 44/48/1
f 34/49/1 35/55/1 72/56/1 71/50/1
f 21/51/1 22/57/1 59/58/1 58/52/1
f 8/53/1 9/59/1 46/60/1 45/54/1
f 35/55/1 36/61/1 73/62/1 72/56/1
f 22/57/1 23/63/1 60/64/1 59/58/1
f 9/59/1 10/65/1 47/66/1 46/60/1
f 36/61/1 37/67/1 74/68/1 73/62/1
f 23/63/1 24/69/1 61/70/1 60/64/1
f 10/65/1 11/71/1 48/72/1 47/66/1
f 24/69/1 25/73/1 62/74/1 61/70/1
f 11/71/1 12/1/1 49/4/1 48/72/1
f 25/73/1 26/5/1 63/8/1 62/74/1
