<?xml version="1.0" encoding="UTF-8" standalone="no"?>
<!-- Created with Inkscape (http://www.inkscape.org/) -->

<svg
   xmlns:dc="http://purl.org/dc/elements/1.1/"
   xmlns:cc="http://creativecommons.org/ns#"
   xmlns:rdf="http://www.w3.org/1999/02/22-rdf-syntax-ns#"
   xmlns:svg="http://www.w3.org/2000/svg"
   xmlns="http://www.w3.org/2000/svg"
   xmlns:sodipodi="http://sodipodi.sourceforge.net/DTD/sodipodi-0.dtd"
   xmlns:inkscape="http://www.inkscape.org/namespaces/inkscape"
   width="210mm"
   height="297mm"
   viewBox="0 0 210 297"
   version="1.1"
   id="svg18583"
   inkscape:version="0.92.4 (5da689c313, 2019-01-14)"
   sodipodi:docname="TohoraSea_CrystalTomb_MainCrystall.svg">
  <defs
     id="defs18577">
    <clipPath
       id="clipPath2092"
       clipPathUnits="userSpaceOnUse">
      <path
         inkscape:connector-curvature="0"
         id="path2090"
         d="M 0,4096 H 4096 V 0 H 0 Z" />
    </clipPath>
    <clipPath
       id="clipPath2100"
       clipPathUnits="userSpaceOnUse">
      <path
         inkscape:connector-curvature="0"
         id="path2098"
         d="M 283.105,973.773 H 813.632 V 106.621 H 283.105 Z" />
    </clipPath>
    <clipPath
       id="clipPath2120"
       clipPathUnits="userSpaceOnUse">
      <path
         inkscape:connector-curvature="0"
         id="path2118"
         d="M 0,4096 H 4096 V 0 H 0 Z" />
    </clipPath>
    <clipPath
       id="clipPath2128"
       clipPathUnits="userSpaceOnUse">
      <path
         inkscape:connector-curvature="0"
         id="path2126"
         d="M 313.421,973.773 H 416.495 V 678.646 H 313.421 Z" />
    </clipPath>
    <clipPath
       id="clipPath2144"
       clipPathUnits="userSpaceOnUse">
      <path
         inkscape:connector-curvature="0"
         id="path2142"
         d="M 283.105,462.445 H 448.728 V 333.258 H 283.105 Z" />
    </clipPath>
    <clipPath
       id="clipPath2160"
       clipPathUnits="userSpaceOnUse">
      <path
         inkscape:connector-curvature="0"
         id="path2158"
         d="M 622.635,476.952 H 813.632 V 152.095 H 622.635 Z" />
    </clipPath>
    <clipPath
       id="clipPath2176"
       clipPathUnits="userSpaceOnUse">
      <path
         inkscape:connector-curvature="0"
         id="path2174"
         d="M 313.421,678.646 H 448.728 V 462.445 H 313.421 Z" />
    </clipPath>
    <clipPath
       id="clipPath2192"
       clipPathUnits="userSpaceOnUse">
      <path
         inkscape:connector-curvature="0"
         id="path2190"
         d="M 386.822,462.445 H 593.603 V 208.937 H 386.822 Z" />
    </clipPath>
    <clipPath
       id="clipPath2208"
       clipPathUnits="userSpaceOnUse">
      <path
         inkscape:connector-curvature="0"
         id="path2206"
         d="M 593.603,322.898 H 813.632 V 106.621 H 593.603 Z" />
    </clipPath>
    <clipPath
       id="clipPath2224"
       clipPathUnits="userSpaceOnUse">
      <path
         inkscape:connector-curvature="0"
         id="path2222"
         d="M 283.105,343.084 H 386.822 V 147.547 H 283.105 Z" />
    </clipPath>
    <clipPath
       id="clipPath2240"
       clipPathUnits="userSpaceOnUse">
      <path
         inkscape:connector-curvature="0"
         id="path2238"
         d="M 571.863,443.126 H 729.207 V 208.937 H 571.863 Z" />
    </clipPath>
    <clipPath
       id="clipPath2256"
       clipPathUnits="userSpaceOnUse">
      <path
         inkscape:connector-curvature="0"
         id="path2254"
         d="M 460.453,905.821 H 687.442 V 711.189 H 460.453 Z" />
    </clipPath>
    <clipPath
       id="clipPath2272"
       clipPathUnits="userSpaceOnUse">
      <path
         inkscape:connector-curvature="0"
         id="path2270"
         d="M 460.453,794.789 H 622.635 V 390.074 H 460.453 Z" />
    </clipPath>
    <clipPath
       id="clipPath2288"
       clipPathUnits="userSpaceOnUse">
      <path
         inkscape:connector-curvature="0"
         id="path2286"
         d="m 402.117,973.773 h 58.336 V 678.646 h -58.336 z" />
    </clipPath>
    <clipPath
       id="clipPath2324"
       clipPathUnits="userSpaceOnUse">
      <path
         inkscape:connector-curvature="0"
         id="path2322"
         d="M 0,4096 H 4096 V 0 H 0 Z" />
    </clipPath>
    <clipPath
       id="clipPath2332"
       clipPathUnits="userSpaceOnUse">
      <path
         inkscape:connector-curvature="0"
         id="path2330"
         d="m 729.207,338.537 h 84.425 V 152.095 h -84.425 z" />
    </clipPath>
  </defs>
  <sodipodi:namedview
     id="base"
     pagecolor="#ffffff"
     bordercolor="#666666"
     borderopacity="1.0"
     inkscape:pageopacity="0.0"
     inkscape:pageshadow="2"
     inkscape:zoom="0.49497475"
     inkscape:cx="1083.9516"
     inkscape:cy="659.74687"
     inkscape:document-units="mm"
     inkscape:current-layer="layer1"
     showgrid="false"
     inkscape:window-width="3240"
     inkscape:window-height="2035"
     inkscape:window-x="-13"
     inkscape:window-y="-13"
     inkscape:window-maximized="1" />
  <metadata
     id="metadata18580">
    <rdf:RDF>
      <cc:Work
         rdf:about="">
        <dc:format>image/svg+xml</dc:format>
        <dc:type
           rdf:resource="http://purl.org/dc/dcmitype/StillImage" />
        <dc:title></dc:title>
      </cc:Work>
    </rdf:RDF>
  </metadata>
  <g
     inkscape:label="Layer 1"
     inkscape:groupmode="layer"
     id="layer1">
    <g
       id="g19788"
       style="stroke:none"
       inkscape:export-xdpi="44.477139"
       inkscape:export-ydpi="44.477139">
      <g
         id="g4213"
         transform="matrix(0.92574172,0,0,0.92574172,2063.6916,-694.35295)"
         style="stroke:none">
        <g
           transform="matrix(0.35277777,0,0,-0.35277777,-2327.9487,1099.6552)"
           id="g2086"
           style="stroke:none">
          <g
             clip-path="url(#clipPath2092)"
             id="g2088"
             style="stroke:none">
            <g
               id="g2094"
               style="stroke:none">
              <g
                 id="g2096"
                 style="stroke:none" />
              <g
                 id="g2108"
                 style="stroke:none">
                <g
                   style="opacity:0.5;stroke:none"
                   id="g2106"
                   clip-path="url(#clipPath2100)">
                  <g
                     id="g2104"
                     transform="translate(313.4209,193.0215)"
                     style="stroke:none">
                    <path
                       inkscape:connector-curvature="0"
                       id="path2102"
                       style="fill:#1ac4ff;fill-opacity:1;fill-rule:nonzero;stroke:none"
                       d="M 0,0 -30.315,150.062 30.316,269.424 0,485.624 46.99,760.218 88.696,780.751 147.032,712.8 339.866,554.665 400.361,282.992 500.21,145.516 V -40.927 L 280.183,-86.4 151.579,-57.601 30.316,-45.474 Z" />
                  </g>
                </g>
              </g>
            </g>
          </g>
        </g>
        <g
           transform="matrix(0.35277777,0,0,-0.35277777,-2118.5386,1025.947)"
           id="g2110"
           style="stroke:none">
          <path
             inkscape:connector-curvature="0"
             id="path2112"
             style="fill:#1ac4ff;fill-opacity:1;fill-rule:nonzero;stroke:none"
             d="m 0,0 -206.782,124.322 61.907,129.187 -32.234,216.2 -14.378,295.127 -41.706,-20.533 -46.99,-274.594 30.316,-216.2 -60.631,-119.362 30.315,-150.062 30.316,-45.474 94.618,-9.462 L 0,-102.315 220.028,-56.842 V 129.601 L 120.179,267.077 93.838,577.615 -133.151,696.885 V 585.853 L 9.037,502.253 29.031,234.189 135.604,113.962 Z" />
        </g>
        <g
           transform="matrix(0.35277777,0,0,-0.35277777,-2327.9487,1099.6552)"
           id="g2114"
           style="stroke:none">
          <g
             clip-path="url(#clipPath2120)"
             id="g2116"
             style="stroke:none">
            <g
               id="g2122"
               style="stroke:none">
              <g
                 id="g2124"
                 style="stroke:none" />
              <g
                 id="g2136"
                 style="stroke:none">
                <g
                   style="opacity:0.30000299;stroke:none"
                   id="g2134"
                   clip-path="url(#clipPath2128)">
                  <g
                     id="g2132"
                     transform="translate(402.1167,973.7725)"
                     style="stroke:none">
                    <path
                       inkscape:connector-curvature="0"
                       id="path2130"
                       style="fill:#ffffff;fill-opacity:1;fill-rule:nonzero;stroke:none"
                       d="M 0,0 14.378,-295.127 H -88.696 l 46.99,274.594 z" />
                  </g>
                </g>
              </g>
            </g>
            <g
               id="g2138"
               style="stroke:none">
              <g
                 id="g2140"
                 style="stroke:none" />
              <g
                 id="g2152"
                 style="stroke:none">
                <g
                   style="opacity:0.39999402;stroke:none"
                   id="g2150"
                   clip-path="url(#clipPath2144)">
                  <g
                     id="g2148"
                     transform="translate(343.7368,462.4453)"
                     style="stroke:none">
                    <path
                       inkscape:connector-curvature="0"
                       id="path2146"
                       style="fill:#ffffff;fill-opacity:1;fill-rule:nonzero;stroke:none"
                       d="M 0,0 -60.631,-119.361 43.085,-129.187 104.992,0 Z" />
                  </g>
                </g>
              </g>
            </g>
            <g
               id="g2154"
               style="stroke:none">
              <g
                 id="g2156"
                 style="stroke:none" />
              <g
                 id="g2168"
                 style="stroke:none">
                <g
                   style="opacity:0.30000299;stroke:none"
                   id="g2166"
                   clip-path="url(#clipPath2160)">
                  <g
                     id="g2164"
                     transform="translate(813.6313,152.0947)"
                     style="stroke:none">
                    <path
                       inkscape:connector-curvature="0"
                       id="path2162"
                       style="fill:#ffffff;fill-opacity:1;fill-rule:nonzero;stroke:none"
                       d="m 0,0 -84.424,170.804 -106.573,120.227 c 0,0 85.668,40.433 91.148,32.888 C -94.369,316.373 0,186.442 0,186.442 Z" />
                  </g>
                </g>
              </g>
            </g>
            <g
               id="g2170"
               style="stroke:none">
              <g
                 id="g2172"
                 style="stroke:none" />
              <g
                 id="g2184"
                 style="stroke:none">
                <g
                   style="opacity:0.80000299;stroke:none"
                   id="g2182"
                   clip-path="url(#clipPath2176)">
                  <g
                     id="g2180"
                     transform="translate(416.4946,678.6455)"
                     style="stroke:none">
                    <path
                       inkscape:connector-curvature="0"
                       id="path2178"
                       style="fill:#ffffff;fill-opacity:1;fill-rule:nonzero;stroke:none"
                       d="M 0,0 32.234,-216.2 H -72.758 L -103.074,0 Z" />
                  </g>
                </g>
              </g>
            </g>
            <g
               id="g2186"
               style="stroke:none">
              <g
                 id="g2188"
                 style="stroke:none" />
              <g
                 id="g2200"
                 style="stroke:none">
                <g
                   style="opacity:0.19999701;stroke:none"
                   id="g2198"
                   clip-path="url(#clipPath2192)">
                  <g
                     id="g2196"
                     transform="translate(386.8218,333.2588)"
                     style="stroke:none">
                    <path
                       inkscape:connector-curvature="0"
                       id="path2194"
                       style="fill:#ffffff;fill-opacity:1;fill-rule:nonzero;stroke:none"
                       d="m 0,0 61.907,129.187 c 0,0 123.135,-70.098 123.135,-72.373 0,-2.273 21.74,-181.136 21.74,-181.136 z" />
                  </g>
                </g>
              </g>
            </g>
            <g
               id="g2202"
               style="stroke:none">
              <g
                 id="g2204"
                 style="stroke:none" />
              <g
                 id="g2216"
                 style="stroke:none">
                <g
                   style="opacity:0.19999701;stroke:none"
                   id="g2214"
                   clip-path="url(#clipPath2208)">
                  <g
                     id="g2212"
                     transform="translate(593.6035,208.9365)"
                     style="stroke:none">
                    <path
                       inkscape:connector-curvature="0"
                       id="path2210"
                       style="fill:#000000;fill-opacity:1;fill-rule:nonzero;stroke:none"
                       d="m 0,0 v -102.315 l 220.028,45.473 -84.424,170.804 z" />
                  </g>
                </g>
              </g>
            </g>
            <g
               id="g2218"
               style="stroke:none">
              <g
                 id="g2220"
                 style="stroke:none" />
              <g
                 id="g2232"
                 style="stroke:none">
                <g
                   style="opacity:0.39999402;stroke:none"
                   id="g2230"
                   clip-path="url(#clipPath2224)">
                  <g
                     id="g2228"
                     transform="translate(386.8218,333.2588)"
                     style="stroke:none">
                    <path
                       inkscape:connector-curvature="0"
                       id="path2226"
                       style="fill:#000000;fill-opacity:1;fill-rule:nonzero;stroke:none"
                       d="m 0,0 c -0.643,-7.228 -43.085,-185.711 -43.085,-185.711 l -30.316,45.474 -30.315,150.062 z" />
                  </g>
                </g>
              </g>
            </g>
            <g
               id="g2234"
               style="stroke:none">
              <g
                 id="g2236"
                 style="stroke:none" />
              <g
                 id="g2248"
                 style="stroke:none">
                <g
                   style="opacity:0.10000598;stroke:none"
                   id="g2246"
                   clip-path="url(#clipPath2240)">
                  <g
                     id="g2244"
                     transform="translate(593.6035,208.9365)"
                     style="stroke:none">
                    <path
                       inkscape:connector-curvature="0"
                       id="path2242"
                       style="fill:#000000;fill-opacity:1;fill-rule:nonzero;stroke:none"
                       d="M 0,0 135.604,113.962 29.031,234.189 -21.74,181.137 Z" />
                  </g>
                </g>
              </g>
            </g>
            <g
               id="g2250"
               style="stroke:none">
              <g
                 id="g2252"
                 style="stroke:none" />
              <g
                 id="g2264"
                 style="stroke:none">
                <g
                   style="opacity:0.10000598;stroke:none"
                   id="g2262"
                   clip-path="url(#clipPath2256)">
                  <g
                     id="g2260"
                     transform="translate(602.6406,711.1895)"
                     style="stroke:none">
                    <path
                       inkscape:connector-curvature="0"
                       id="path2258"
                       style="fill:#000000;fill-opacity:1;fill-rule:nonzero;stroke:none"
                       d="m 0,0 84.801,75.362 -226.989,119.27 V 83.6 Z" />
                  </g>
                </g>
              </g>
            </g>
            <g
               id="g2266"
               style="stroke:none">
              <g
                 id="g2268"
                 style="stroke:none" />
              <g
                 id="g2280"
                 style="stroke:none">
                <g
                   style="opacity:0.05000311;stroke:none"
                   id="g2278"
                   clip-path="url(#clipPath2272)">
                  <g
                     id="g2276"
                     transform="translate(460.4526,794.7891)"
                     style="stroke:none">
                    <path
                       inkscape:connector-curvature="0"
                       id="path2274"
                       style="fill:#000000;fill-opacity:1;fill-rule:nonzero;stroke:none"
                       d="m 0,0 111.411,-404.716 50.771,53.053 -19.994,268.063 z" />
                  </g>
                </g>
              </g>
            </g>
            <g
               id="g2282"
               style="stroke:none">
              <g
                 id="g2284"
                 style="stroke:none" />
              <g
                 id="g2296"
                 style="stroke:none">
                <g
                   style="opacity:0.05000311;stroke:none"
                   id="g2294"
                   clip-path="url(#clipPath2288)">
                  <g
                     id="g2292"
                     transform="translate(416.4946,678.6455)"
                     style="stroke:none">
                    <path
                       inkscape:connector-curvature="0"
                       id="path2290"
                       style="fill:#000000;fill-opacity:1;fill-rule:nonzero;stroke:none"
                       d="m 0,0 43.958,116.144 v 111.032 l -58.336,67.951 z" />
                  </g>
                </g>
              </g>
            </g>
          </g>
        </g>
        <g
           transform="matrix(0.35277777,0,0,-0.35277777,-2186.0909,756.12991)"
           id="g2298"
           style="stroke:none">
          <path
             inkscape:connector-curvature="0"
             id="path2300"
             style="fill:#ffffff;fill-opacity:1;fill-rule:nonzero;stroke:none"
             d="M 0,0 14.378,-295.127 H -88.696 l 104.409,-8.957 30.899,-207.243 -26.189,215.019 37.913,117.325 -38.535,-105.029 z" />
        </g>
        <g
           transform="matrix(0.35277777,0,0,-0.35277777,-2206.686,936.51478)"
           id="g2302"
           style="stroke:none">
          <path
             inkscape:connector-curvature="0"
             id="path2304"
             style="fill:#ffffff;fill-opacity:1;fill-rule:nonzero;stroke:none"
             d="M 0,0 87.548,-10.225 43.085,-129.187 104.992,0 Z" />
        </g>
        <g
           transform="matrix(0.35277777,0,0,-0.35277777,-2115.3505,848.76335)"
           id="g2306"
           style="stroke:none">
          <path
             inkscape:connector-curvature="0"
             id="path2308"
             style="fill:#ffffff;fill-opacity:1;fill-rule:nonzero;stroke:none"
             d="M 0,0 19.994,-268.063 9.997,0 84.801,75.362 Z" />
        </g>
        <g
           transform="matrix(0.35277777,0,0,-0.35277777,-2070.7005,985.74382)"
           id="g2310"
           style="stroke:none">
          <path
             inkscape:connector-curvature="0"
             id="path2312"
             style="fill:#ffffff;fill-opacity:1;fill-rule:nonzero;stroke:none"
             d="m 0,0 -135.604,-113.962 v -102.315 l 9.037,102.315 z" />
        </g>
        <g
           transform="matrix(0.35277777,0,0,-0.35277777,-2118.5386,1031.1605)"
           id="g2314"
           style="stroke:none">
          <path
             inkscape:connector-curvature="0"
             id="path2316"
             style="fill:#ffffff;fill-opacity:1;fill-rule:nonzero;stroke:none"
             d="M 0,0 -206.782,139.101 0,14.778 Z" />
        </g>
        <g
           transform="matrix(0.35277777,0,0,-0.35277777,-2327.9487,1099.6552)"
           id="g2318"
           style="stroke:none">
          <g
             clip-path="url(#clipPath2324)"
             id="g2320"
             style="stroke:none">
            <g
               id="g2326"
               style="stroke:none">
              <g
                 id="g2328"
                 style="stroke:none" />
              <g
                 id="g2340"
                 style="stroke:none">
                <g
                   style="opacity:0.19999701;stroke:none"
                   id="g2338"
                   clip-path="url(#clipPath2332)">
                  <g
                     id="g2336"
                     transform="translate(729.2075,322.8984)"
                     style="stroke:none">
                    <path
                       inkscape:connector-curvature="0"
                       id="path2334"
                       style="fill:#000000;fill-opacity:1;fill-rule:nonzero;stroke:none"
                       d="M 0,0 84.424,15.639 V -170.804 Z" />
                  </g>
                </g>
              </g>
            </g>
          </g>
        </g>
      </g>
      <g
         transform="matrix(0.42868907,0,0,0.42868907,146.84995,-40.035081)"
         id="g19556"
         style="stroke:none">
	<polygon
   id="polygon19530"
   points="552.4,713.7 523.3,438 316.5,220.5 290.5,133.1 177.1,177.6 92.9,413.5 79.1,729.1 296.6,764.3 "
   class="st0"
   style="opacity:0.5;fill:#1ac4ff;stroke:none" />

	<polygon
   id="polygon19532"
   points="301.2,696.9 187.9,652.5 171,421.1 215.4,165.3 177.1,177.6 92.9,413.5 79.1,729.1 296.6,764.3 552.4,713.7 523.3,438 316.5,220.5 320.6,311.4 446.7,461 437.6,652.5 "
   class="st1"
   style="fill:#1ac4ff;stroke:none" />

	<polygon
   id="polygon19534"
   points="92.9,413.5 177.1,177.6 215.4,165.3 171,421.1 "
   class="st2"
   style="opacity:0.5;fill:#ffffff;stroke:none" />

	<polygon
   id="polygon19536"
   points="82.8,640.1 92.9,413.5 171,421.1 187.9,652.5 "
   class="st3"
   style="opacity:0.7;fill:#ffffff;stroke:none" />

	<polygon
   id="polygon19538"
   points="79.1,729.1 82.8,640.1 187.9,652.5 118.9,735.2 "
   class="st4"
   style="opacity:0.5;stroke:none" />

	<polygon
   id="polygon19540"
   points="296.6,764.3 118.9,735.2 187.9,652.5 301.2,696.9 "
   class="st2"
   style="opacity:0.5;fill:#ffffff;stroke:none" />

	<polygon
   id="polygon19542"
   points="552.4,713.7 296.6,764.3 301.2,696.9 437.6,652.5 "
   class="st4"
   style="opacity:0.5;stroke:none" />

	<polygon
   id="polygon19544"
   points="446.7,461 437.6,652.5 552.4,713.7 523.3,438 "
   class="st2"
   style="opacity:0.5;fill:#ffffff;stroke:none" />

	<polygon
   id="polygon19546"
   points="446.7,461 523.3,438 316.5,220.5 320.6,311.4 "
   class="st3"
   style="opacity:0.7;fill:#ffffff;stroke:none" />

	<polygon
   id="polygon19548"
   points="179.2,532.5 175.6,425.2 215.4,165.3 164.4,410.4 92.9,413.5 166.9,427.8 "
   class="st5"
   style="fill:#ffffff;stroke:none" />

	<polygon
   id="polygon19550"
   points="110.7,643.3 187.9,652.5 239.4,672.4 194,648.4 181.7,572.8 181.2,641.2 "
   class="st5"
   style="fill:#ffffff;stroke:none" />

	<polygon
   id="polygon19552"
   points="513.1,443.1 447.8,450.8 344.6,340 434.5,460 440.6,593.2 452.9,467.6 "
   class="st5"
   style="fill:#ffffff;stroke:none" />

	<polygon
   id="polygon19554"
   points="442.7,649.9 439.1,611.6 431.4,648.9 393.1,668.3 437,660.6 479.4,674.4 "
   class="st5"
   style="fill:#ffffff;stroke:none" />

</g>
      <g
         transform="matrix(0.40288607,0,0,0.40288607,71.141412,-25.076254)"
         id="g19588"
         style="stroke:none">
	<polygon
   id="polygon19558"
   points="1148.4,293 1244.4,290.9 1273,714.8 1021.7,776 784.8,711.7 798.1,343 1050.3,173.5 "
   class="st0"
   style="opacity:0.5;fill:#1ac4ff;stroke:none" />

	<polygon
   id="polygon19560"
   points="1011.5,710.7 1206.6,636.1 1148.4,293 1244.4,290.9 1273,714.8 1021.7,776 784.8,711.7 798.1,343 973.9,225.6 959.4,346.1 866.5,393.1 869.6,621.8 "
   class="st1"
   style="fill:#1ac4ff;stroke:none" />

	<polygon
   id="polygon19562"
   points="959.4,346.1 866.5,393.1 798.1,343 973.9,225.6 "
   class="st2"
   style="opacity:0.5;fill:#ffffff;stroke:none" />

	<polygon
   id="polygon19564"
   points="866.5,393.1 869.6,621.8 784.8,711.7 798.1,343 "
   class="st3"
   style="opacity:0.7;fill:#ffffff;stroke:none" />

	<polygon
   id="polygon19566"
   points="869.6,621.8 929.9,659.4 884.1,736.8 784.8,711.7 "
   class="st4"
   style="opacity:0.5;stroke:none" />

	<polygon
   id="polygon19568"
   points="929.9,659.4 884.1,736.8 1021.7,776 1011.5,710.7 "
   class="st2"
   style="opacity:0.5;fill:#ffffff;stroke:none" />

	<polygon
   id="polygon19570"
   points="1206.6,636.1 1273,714.8 1021.7,776 1011.5,710.7 "
   class="st4"
   style="opacity:0.5;stroke:none" />

	<polygon
   id="polygon19572"
   points="1206.6,636.1 1168.2,409 1247.3,341.4 1273,714.8 "
   class="st2"
   style="opacity:0.5;fill:#ffffff;stroke:none" />

	<polygon
   id="polygon19574"
   points="1168.2,409 1247.3,341.4 1244.4,290.9 "
   class="st3"
   style="opacity:0.7;fill:#ffffff;stroke:none" />

	<polygon
   id="polygon19576"
   points="954.8,340.8 916.9,368.4 964,349.8 973.9,225.6 "
   class="st5"
   style="fill:#ffffff;stroke:none" />

	<polygon
   id="polygon19578"
   points="863.6,394.9 822.4,360.7 865.1,390 887.8,382 869.4,394.1 868.4,502.5 "
   class="st5"
   style="fill:#ffffff;stroke:none" />

	<polygon
   id="polygon19580"
   points="869.6,621.8 834.5,658.6 867.5,619.1 869.2,560.7 871.4,617.6 906,644.5 "
   class="st5"
   style="fill:#ffffff;stroke:none" />

	<polygon
   id="polygon19582"
   points="1206.6,636.1 1241.4,678.1 1209.6,624.1 1186.7,526.9 1196.2,628 1108.1,673.1 "
   class="st5"
   style="fill:#ffffff;stroke:none" />

	<polygon
   id="polygon19584"
   points="1168.2,409 1178.2,475.9 1174,412 1200.1,382.9 "
   class="st5"
   style="fill:#ffffff;stroke:none" />

	<polygon
   id="polygon19586"
   points="1023.1,534.9 1050.3,173.5 1148.4,293 1011.5,710.7 "
   class="st2"
   style="opacity:0.5;fill:#ffffff;stroke:none" />

</g>
      <rect
         y="0.86536354"
         x="1.0690781"
         height="292.39288"
         width="584.78577"
         id="rect19658"
         style="opacity:1;fill:none;fill-opacity:1;stroke:none;stroke-width:2;stroke-linecap:square;stroke-miterlimit:4;stroke-dasharray:none;stroke-opacity:1;paint-order:stroke fill markers" />
    </g>
  </g>
  <style
     id="style19527"
     type="text/css">
	.st0{opacity:0.5;fill:#1AC4FF;}
	.st1{fill:#1AC4FF;}
	.st2{opacity:0.5;fill:#FFFFFF;}
	.st3{opacity:0.7;fill:#FFFFFF;}
	.st4{opacity:0.5;}
	.st5{fill:#FFFFFF;}
</style>
</svg>
